<?xml version="1.0" standalone="no"?>
<!DOCTYPE svg PUBLIC "-//W3C//DTD SVG 1.1//EN" "http://www.w3.org/Graphics/SVG/1.1/DTD/svg11.dtd" >
<svg xmlns="http://www.w3.org/2000/svg" xmlns:xlink="http://www.w3.org/1999/xlink" version="1.1">
<metadata>
Created by FontForge 20161003 at Sun Dec 31 11:21:05 2017
 By www-data
-3.5, I1995 Jos Buivenga
</metadata>
<defs>
<font id="Delicious-SmallCaps" horiz-adv-x="450" >
  <font-face 
    font-family="Delicious"
    font-weight="500"
    font-variant="small-caps"
    font-stretch="normal"
    units-per-em="1000"
    panose-1="0 0 0 0 0 0 0 0 0 0"
    ascent="800"
    descent="-200"
    x-height="514"
    cap-height="630"
    bbox="-73 -210 1011 890"
    underline-thickness="20"
    underline-position="-140"
    stemh="61"
    stemv="76"
    unicode-range="U+0020-FB02"
  />
<missing-glyph horiz-adv-x="1000" 
 />
    <glyph glyph-name=".notdef" horiz-adv-x="1000" 
 />
    <glyph glyph-name="space" unicode=" " horiz-adv-x="300" 
 />
    <glyph glyph-name="exclam" unicode="!" horiz-adv-x="264" 
d="M207 46c0 -33 -31 -61 -64 -61c-31 0 -58 24 -58 56c0 34 31 61 64 61c31 0 58 -24 58 -56zM195 699c-11 -64 -17 -128 -17 -193v-344h-60c-7 129 -14 239 -14 368c0 53 4 107 15 159z" />
    <glyph glyph-name="quotedbl" unicode="&#x22;" horiz-adv-x="346" 
d="M126 708l14 -63l-22 -157h-33l-21 157l13 63h49zM264 708l14 -63l-22 -157h-33l-21 157l13 63h49z" />
    <glyph glyph-name="numbersign" unicode="#" horiz-adv-x="556" 
d="M325 279l19 152h-114l-19 -152h114zM375 675h60l-22 -178h85l-6 -66h-88l-19 -152h75l-6 -66h-77l-26 -204h-60l26 204h-115l-23 -185h-60l23 185h-81l10 66h80l19 152h-71l10 66h69l25 197h60l-25 -197h115z" />
    <glyph glyph-name="dollar" unicode="$" horiz-adv-x="445" 
d="M263 256v-201c45 15 69 56 69 102c0 43 -35 77 -69 99zM218 379v201c-50 -8 -78 -44 -78 -93c0 -57 36 -80 78 -108zM409 156c0 -89 -60 -153 -146 -168v-61h-45v58c-49 1 -108 18 -151 43l23 60c36 -18 88 -38 128 -40v236c-78 50 -156 91 -156 196c0 97 60 158 156 164
v55h45v-56c41 -5 89 -22 122 -48l-27 -54c-26 19 -63 33 -95 38v-228c80 -51 146 -88 146 -195z" />
    <glyph glyph-name="percent" unicode="%" horiz-adv-x="699" 
d="M253 512c0 41 -33 74 -74 74s-74 -33 -74 -74s33 -74 74 -74s74 33 74 74zM482 630l-222 -630h-66l211 584c-38 -20 -104 -19 -104 -19s11 -21 11 -53c0 -73 -60 -133 -133 -133s-133 60 -133 133s60 133 133 133c26 0 50 -7 71 -20c22 -6 48 -11 70 -11
c63 0 111 30 111 30zM651 118c0 -73 -60 -133 -133 -133s-133 60 -133 133s60 133 133 133s133 -60 133 -133zM592 118c0 41 -33 74 -74 74s-74 -33 -74 -74s33 -74 74 -74s74 33 74 74z" />
    <glyph glyph-name="ampersand" unicode="&#x26;" horiz-adv-x="630" 
d="M413 490v47c0 58 -32 106 -95 106c-49 0 -102 -29 -102 -84s61 -69 105 -69h92zM599 13c-36 -18 -61 -28 -102 -28c-67 0 -88 54 -88 112v335h-97c-135 0 -184 -65 -184 -195c0 -47 9 -111 31 -153c7 -13 21 -37 38 -37c29 0 52 66 116 66c16 0 34 -4 49 -11l-15 -54
c-10 3 -21 6 -31 6c-49 0 -57 -69 -120 -69c-115 0 -154 158 -154 249c0 99 52 231 167 235c-38 16 -69 46 -69 90c0 86 92 135 168 135c84 0 175 -48 175 -142v-62h99v-58h-97v-331c0 -28 5 -55 39 -55c20 0 40 6 58 14z" />
    <glyph glyph-name="quoteright" unicode="&#x2019;" horiz-adv-x="270" 
d="M158 646c30 0 64 -46 64 -46s-41 -87 -129 -184l-45 31c32 46 52 85 60 117c4 16 5 30 5 41c0 15 -2 24 -2 24s28 17 47 17z" />
    <glyph glyph-name="parenleft" unicode="(" horiz-adv-x="336" 
d="M307 -84l-7 -62c-166 125 -253 267 -253 478c0 179 101 350 251 444l8 -57c-127 -83 -200 -239 -200 -389c0 -172 69 -308 201 -414z" />
    <glyph glyph-name="parenright" unicode=")" horiz-adv-x="339" 
d="M40 776c151 -94 251 -266 251 -444c0 -211 -87 -353 -253 -478l-7 62c133 106 202 243 202 414c0 150 -74 306 -201 389z" />
    <glyph glyph-name="asterisk" unicode="*" horiz-adv-x="424" 
d="M265 674l-34 -113l149 52v-62l-131 -42l106 -163h-70l-77 123l-76 -123h-65l98 163l-130 42v64l150 -54l-36 113h116z" />
    <glyph glyph-name="plus" unicode="+" horiz-adv-x="471" 
d="M426 220h-162v-173h-58v173h-161v60h161v173h58v-173h162v-60z" />
    <glyph glyph-name="comma" unicode="," horiz-adv-x="258" 
d="M139 87c30 0 64 -46 64 -46s-41 -87 -129 -184l-45 31c32 46 52 85 60 117c4 16 5 30 5 41c0 15 -2 24 -2 24s28 17 47 17z" />
    <glyph glyph-name="hyphen" unicode="-" horiz-adv-x="302" 
d="M245 285v-60h-191v60h191z" />
    <glyph glyph-name="period" unicode="." horiz-adv-x="258" 
d="M194 46c0 -33 -31 -61 -64 -61c-31 0 -58 24 -58 56c0 34 31 61 64 61c31 0 58 -24 58 -56z" />
    <glyph glyph-name="slash" unicode="/" horiz-adv-x="356" 
d="M339 757l-259 -905h-63l259 905h63z" />
    <glyph glyph-name="zero" unicode="0" 
d="M225 -10c-109 0 -196 143 -196 325s87 325 196 325s196 -143 196 -325s-87 -325 -196 -325zM225 571c-65 0 -127 -107 -127 -256s62 -256 127 -256s127 107 127 256s-62 256 -127 256z" />
    <glyph glyph-name="one" unicode="1" 
d="M224 0v553h-145v54c56 0 152 23 152 23h70v-630h-77z" />
    <glyph glyph-name="two" unicode="2" 
d="M227 645c58 0 100 -16 129 -42c76 -69 50 -206 -8 -277l-145 -176c-32 -39 -49 -81 -49 -81h244v-69h-330l-6 62s17 48 69 111l100 120c51 61 141 185 61 261c-17 16 -41 27 -70 27c-52 0 -106 -26 -146 -57l-14 58s63 63 165 63z" />
    <glyph glyph-name="three" unicode="3" 
d="M242 12c-36 -14 -73 -21 -104 -24c-30 -3 -53 -3 -61 -3h-5v57c1 0 244 -5 244 176c0 76 -69 92 -139 92c-30 0 -60 -3 -85 -6v60l44 6c48 26 91 58 125 84c30 22 43 50 43 73c0 8 -1 15 -4 21c-11 22 -30 35 -58 35c-42 0 -114 -36 -146 -59l-18 55c38 29 112 66 180 66
c51 0 98 -20 117 -79c4 -12 6 -25 6 -37c0 -44 -25 -86 -80 -123c-19 -12 -35 -22 -54 -34c22 0 53 -7 81 -23c35 -20 65 -56 65 -115c0 -131 -74 -193 -151 -222z" />
    <glyph glyph-name="four" unicode="4" 
d="M356 140v-140h-72v140h-249l-4 65c55 155 147 294 244 425h83v-424h64v-66h-66zM284 533c-70 -102 -132 -212 -177 -327h177v327z" />
    <glyph glyph-name="five" unicode="5" 
d="M250 13c-38 -17 -78 -24 -111 -26c-33 -3 -59 -2 -67 -2h-5v60s82 -6 152 28c50 24 92 71 92 147c0 70 -55 93 -112 93c-37 0 -78 -10 -115 -20l28 337h248v-62h-178l-16 -198c17 4 28 5 41 5h26c31 -1 61 -9 87 -24c36 -19 69 -61 69 -115c0 -123 -66 -191 -139 -223z
" />
    <glyph glyph-name="six" unicode="6" 
d="M337 221c0 71 -39 102 -90 111c-10 2 -20 3 -29 3c-35 0 -61 -12 -90 -25c-5 -24 -8 -49 -8 -74c0 -98 40 -191 113 -191c55 0 82 38 95 86c7 28 9 60 9 90zM330 643l27 -49c-67 -42 -112 -70 -149 -116c-24 -30 -49 -65 -67 -117c26 9 55 23 105 23h15
c52 -3 150 -42 150 -166c0 -129 -62 -233 -184 -233c-125 0 -180 130 -180 272c0 112 49 202 113 267c50 51 110 90 170 119z" />
    <glyph glyph-name="seven" unicode="7" 
d="M387 630v-64c0 -93 -28 -209 -69 -318c-42 -113 -96 -209 -148 -275l-66 28c51 67 106 160 149 272c36 95 62 198 62 293h-256v64h328z" />
    <glyph glyph-name="eight" unicode="8" 
d="M409 138c-14 -96 -91 -153 -191 -153c-99 0 -177 77 -177 175c0 40 14 79 40 116c16 23 44 45 78 61c-55 33 -89 66 -98 124c-1 9 -2 17 -2 26c0 79 55 157 164 158h6c118 1 158 -71 157 -151v-7c0 -47 -35 -108 -111 -143c5 -3 19 -10 25 -13c72 -37 112 -83 112 -157
c0 -11 -1 -23 -3 -36zM314 509c-5 61 -44 79 -93 79c-51 0 -89 -44 -89 -105c0 -55 31 -85 82 -111c12 5 37 19 37 19c33 17 63 47 63 104v14zM272 273c-24 12 -57 33 -62 35c-65 -34 -93 -87 -93 -137c0 -61 42 -126 110 -126c67 0 108 66 108 125c0 39 -17 78 -63 103z
" />
    <glyph glyph-name="nine" unicode="9" 
d="M334 396c0 97 -40 189 -113 189c-88 0 -104 -95 -104 -176c0 -71 47 -107 90 -112c6 -1 11 -1 18 -1c20 0 41 4 61 9c15 5 29 11 40 17c5 24 8 49 8 74zM294 106c-54 -55 -134 -107 -204 -135l-21 58c75 39 136 75 176 124c25 30 48 64 66 114l-6 -2
c-13 -4 -24 -10 -39 -13c-14 -4 -33 -7 -60 -7c-58 0 -163 42 -163 167c0 129 60 233 182 233c90 0 143 -67 167 -155c11 -39 16 -83 16 -126c0 -105 -53 -196 -114 -258z" />
    <glyph glyph-name="colon" unicode=":" horiz-adv-x="258" 
d="M194 46c0 -33 -31 -61 -64 -61c-31 0 -58 24 -58 56c0 34 31 61 64 61c31 0 58 -24 58 -56zM194 353c0 -33 -31 -61 -64 -61c-31 0 -58 24 -58 56c0 34 31 61 64 61c31 0 58 -24 58 -56z" />
    <glyph glyph-name="semicolon" unicode=";" horiz-adv-x="258" 
d="M136 87c30 0 64 -46 64 -46s-41 -87 -129 -184l-45 31c32 46 52 85 60 117c4 16 5 30 5 41c0 15 -2 24 -2 24s28 17 47 17zM194 352c0 -34 -31 -62 -64 -62c-31 0 -58 24 -58 56c0 34 31 62 64 62c31 0 58 -24 58 -56z" />
    <glyph glyph-name="less" unicode="&#x3c;" horiz-adv-x="300" 
d="M267 100l-47 -38l-187 188l185 188l47 -38l-149 -150z" />
    <glyph glyph-name="equal" unicode="=" horiz-adv-x="480" 
d="M426 203v-60h-382v60h382zM426 352v-60h-382v60h382z" />
    <glyph glyph-name="greater" unicode="&#x3e;" horiz-adv-x="300" 
d="M33 100l47 -38l187 188l-185 188l-47 -38l149 -150z" />
    <glyph glyph-name="question" unicode="?" horiz-adv-x="358" 
d="M194 46c0 -33 -31 -61 -64 -61c-31 0 -58 24 -58 56c0 34 31 61 64 61c31 0 58 -24 58 -56zM164 162h-61v51c0 63 -1 115 38 167l82 110c19 26 34 54 34 79c0 36 -19 62 -58 62c-28 0 -57 -3 -84 -9v57c29 8 60 13 90 13c76 0 127 -40 127 -121c0 -41 -23 -78 -49 -112
l-80 -106c-30 -39 -39 -72 -39 -140v-51z" />
    <glyph glyph-name="at" unicode="@" horiz-adv-x="792" 
d="M497 457c-24 31 -61 48 -100 48c-82 0 -110 -146 -110 -207c0 -30 9 -75 47 -75c39 0 89 34 122 54zM528 146c-43 0 -81 20 -81 68c0 5 1 11 2 16c-36 -31 -79 -72 -129 -72c-68 0 -101 69 -101 129c0 112 41 273 180 273c44 0 85 -20 110 -57l10 41h65l-69 -289
c-3 -11 -6 -22 -6 -33c0 -19 9 -27 27 -27c88 0 152 137 152 213c0 168 -123 262 -284 262c-169 0 -295 -154 -295 -317c0 -175 130 -315 307 -315c97 0 195 44 255 121l47 -25c-62 -92 -192 -152 -302 -152c-208 0 -373 165 -373 373c0 193 168 371 363 371
c189 0 334 -124 334 -318c0 -107 -94 -262 -212 -262z" />
    <glyph glyph-name="A" unicode="A" horiz-adv-x="510" 
d="M255 547l-75 -278h150zM498 0h-82l-67 203h-188l-67 -203h-82l200 630h86z" />
    <glyph glyph-name="B" unicode="B" horiz-adv-x="502" 
d="M382 184c0 100 -69 115 -152 115h-70v-233c24 -7 50 -13 75 -13c84 0 147 41 147 131zM348 472c0 73 -49 96 -114 96h-74v-204h74c66 0 114 40 114 108zM235 630c33 0 68 -3 99 -15c62 -25 93 -78 93 -144c0 -54 -41 -119 -95 -134c85 -5 130 -73 130 -154
c0 -132 -102 -198 -225 -198c-52 0 -107 12 -157 25v620h155z" />
    <glyph glyph-name="C" unicode="C" horiz-adv-x="497" 
d="M472 41c-45 -36 -117 -56 -174 -56c-183 0 -243 176 -243 330c0 147 72 330 245 330c53 0 117 -14 162 -43l-29 -52c-42 23 -85 32 -133 32c-119 0 -165 -177 -165 -271c0 -106 34 -261 167 -261c45 0 100 14 136 41z" />
    <glyph glyph-name="D" unicode="D" horiz-adv-x="547" 
d="M258 566h-99v-502h93c134 0 159 142 159 248c0 103 -19 254 -153 254zM262 630c180 0 230 -164 230 -316c0 -154 -62 -314 -240 -314h-172v630h182z" />
    <glyph glyph-name="E" unicode="E" horiz-adv-x="454" 
d="M404 630v-67h-244v-200h187v-69h-187v-225h254v-69h-334v630h324z" />
    <glyph glyph-name="F" unicode="F" horiz-adv-x="412" 
d="M376 630v-66h-216v-201h171v-69h-171v-294h-80v630h296z" />
    <glyph glyph-name="G" unicode="G" horiz-adv-x="524" 
d="M464 11c-46 -19 -115 -26 -164 -26c-184 0 -245 174 -245 330c0 147 72 330 245 330c66 0 106 -14 163 -43l-31 -53c-39 24 -86 34 -132 34c-115 0 -165 -166 -165 -272c0 -105 33 -262 167 -262c27 0 63 4 88 14v206h74v-258z" />
    <glyph glyph-name="H" unicode="H" horiz-adv-x="548" 
d="M468 0h-80v295h-228v-295h-80v630h80v-267h228v267h80v-630z" />
    <glyph glyph-name="I" unicode="I" horiz-adv-x="238" 
d="M158 630v-630h-78v630h78z" />
    <glyph glyph-name="J" unicode="J" horiz-adv-x="245" 
d="M165 -28c0 -81 -73 -118 -142 -135l-17 54c42 14 81 38 81 87v652h78v-658z" />
    <glyph glyph-name="K" unicode="K" horiz-adv-x="485" 
d="M477 0h-80l-237 263v-263h-80v630h80v-288l220 288h85l-242 -324l254 -282v-24z" />
    <glyph glyph-name="L" unicode="L" horiz-adv-x="382" 
d="M156 630v-564h217v-66h-293v630h76z" />
    <glyph glyph-name="M" unicode="M" horiz-adv-x="742" 
d="M662 630v-630h-80v428c0 34 5 87 5 87l-181 -515h-70l-181 516s5 -52 5 -86v-430h-80v630h106l185 -532l185 532h106z" />
    <glyph glyph-name="N" unicode="N" horiz-adv-x="554" 
d="M474 0h-82l-237 514c3 -28 5 -57 5 -86v-428h-80v630h106l213 -482c-3 29 -5 59 -5 88v394h80v-630z" />
    <glyph glyph-name="O" unicode="O" horiz-adv-x="548" 
d="M274 579c-108 0 -139 -183 -139 -264s31 -264 139 -264s139 183 139 264s-31 264 -139 264zM274 645c164 0 219 -197 219 -330s-55 -330 -219 -330s-219 197 -219 330s55 330 219 330z" />
    <glyph glyph-name="P" unicode="P" horiz-adv-x="489" 
d="M216 566h-56v-255c23 -10 57 -21 81 -21c82 0 129 71 129 147c0 91 -71 129 -154 129zM216 630c126 0 234 -55 234 -194c0 -122 -79 -211 -204 -211c-27 0 -62 7 -86 20v-245h-80v630h136z" />
    <glyph glyph-name="Q" unicode="Q" horiz-adv-x="548" 
d="M335 -5c32 -34 77 -67 128 -67c12 0 24 1 36 4l-21 -76c-8 -1 -16 -2 -24 -2c-86 0 -138 70 -185 115l-18 17c-147 18 -196 202 -196 329c0 133 55 330 219 330s219 -197 219 -330c0 -115 -41 -278 -158 -320zM274 579c-108 0 -139 -183 -139 -264s31 -264 139 -264
s139 183 139 264s-31 264 -139 264z" />
    <glyph glyph-name="R" unicode="R" horiz-adv-x="505" 
d="M370 437c0 91 -71 129 -154 129h-56v-255c24 -11 47 -21 74 -21c86 0 136 64 136 147zM480 0h-78l-207 230c-12 4 -24 9 -35 15v-245h-80v630h136c126 0 234 -55 234 -194c0 -99 -54 -186 -156 -206l186 -206v-24z" />
    <glyph glyph-name="S" unicode="S" horiz-adv-x="434" 
d="M220 645c55 0 118 -27 148 -74l-45 -38c-24 30 -65 48 -103 48c-54 0 -97 -32 -97 -89c0 -148 270 -134 270 -336c0 -106 -85 -171 -186 -171c-51 0 -111 26 -150 59l34 57c29 -24 79 -52 117 -52c63 0 108 45 108 108c0 130 -271 136 -271 323c0 107 71 165 175 165z
" />
    <glyph glyph-name="T" unicode="T" horiz-adv-x="405" 
d="M395 560h-154v-560h-78v560h-153v70h385v-70z" />
    <glyph glyph-name="U" unicode="U" horiz-adv-x="558" 
d="M479 241c0 -131 -50 -256 -200 -256c-149 0 -200 126 -200 260v385h80v-386c0 -81 16 -193 120 -193c106 0 120 112 120 194v385h80v-389z" />
    <glyph glyph-name="V" unicode="V" horiz-adv-x="510" 
d="M505 630l-206 -630h-88l-205 630h87l164 -534l165 534h83z" />
    <glyph glyph-name="W" unicode="W" horiz-adv-x="708" 
d="M700 630l-148 -630h-85l-112 509l-112 -509h-85l-148 630h85l97 -446c8 -35 8 -66 8 -66l115 512h80l115 -512s0 31 8 66l101 446h81z" />
    <glyph glyph-name="X" unicode="X" horiz-adv-x="492" 
d="M480 0h-92l-148 250l-143 -250h-87l187 323l-182 307h87l139 -231l134 231h82l-173 -303z" />
    <glyph glyph-name="Y" unicode="Y" horiz-adv-x="471" 
d="M459 630l-184 -399v-231h-79v231l-183 399h85l140 -314l141 314h80z" />
    <glyph glyph-name="Z" unicode="Z" horiz-adv-x="458" 
d="M401 630v-69c-98 -161 -190 -324 -277 -491h304v-70h-392v68c85 168 174 332 272 493h-250v69h343z" />
    <glyph glyph-name="bracketleft" unicode="[" horiz-adv-x="248" 
d="M183 732v-58h-93v-772h93v-58h-155v888h155z" />
    <glyph glyph-name="backslash" unicode="\" horiz-adv-x="335" 
d="M333 -148h-62l-259 905h62c279 -976 231 -807 259 -905z" />
    <glyph glyph-name="bracketright" unicode="]" horiz-adv-x="249" 
d="M221 732v-888h-155v58h93v772h-93v58h155z" />
    <glyph glyph-name="asciicircum" unicode="^" horiz-adv-x="624" 
d="M551 320h-70c-108 198 -170 307 -170 307s-62 -113 -170 -307h-70c113 198 212 388 212 388h56s198 -364 212 -388z" />
    <glyph glyph-name="underscore" unicode="_" 
d="M450 -75v-60h-450v60h450z" />
    <glyph glyph-name="quoteleft" unicode="&#x2018;" horiz-adv-x="267" 
d="M110 431c-30 0 -64 46 -64 46s41 87 129 184l45 -31c-32 -46 -52 -85 -60 -117c-4 -16 -5 -30 -5 -41c0 -15 2 -24 2 -24s-28 -17 -47 -17z" />
    <glyph glyph-name="a" unicode="a" horiz-adv-x="465" 
d="M359 0l-54 162h-147l-53 -162h-83l169 514h81l170 -514h-83zM232 419l-59 -193h117z" />
    <glyph glyph-name="b" unicode="b" horiz-adv-x="479" 
d="M227 -16c-46 0 -121 18 -137 22v508h135c32 0 61 -3 85 -12c52 -20 81 -64 81 -120c0 -20 -11 -55 -26 -73c-11 -12 -22 -21 -39 -32c68 -19 94 -68 94 -127c0 -103 -81 -166 -193 -166zM282 442c-15 8 -35 12 -58 12h-55v-152l54 -1c49 -1 90 27 90 82
c0 30 -14 51 -31 59zM308 223c-17 12 -43 16 -87 16h-52v-180c15 -4 39 -9 56 -9c68 0 116 33 116 100c0 30 -8 56 -33 73z" />
    <glyph glyph-name="c" unicode="c" horiz-adv-x="465" 
d="M273 -16c-155 0 -208 147 -208 273c0 72 19 140 53 188c36 53 91 85 157 85c65 0 115 -21 142 -38l-29 -52c-39 20 -71 29 -113 29c-36 0 -80 -30 -103 -77c-18 -36 -28 -87 -28 -138c0 -47 6 -96 24 -131c23 -46 57 -76 108 -76c54 0 101 29 114 38l35 -51
c-15 -11 -71 -50 -152 -50z" />
    <glyph glyph-name="d" unicode="d" horiz-adv-x="509" 
d="M239 0h-149v514h157c128 0 197 -94 197 -258c0 -176 -91 -256 -205 -256zM244 452h-76v-390h71c87 0 126 74 126 193c0 123 -36 197 -121 197z" />
    <glyph glyph-name="e" unicode="e" horiz-adv-x="437" 
d="M90 0v514h282v-64h-203v-149h156v-66h-156v-169h212v-66h-291z" />
    <glyph glyph-name="f" unicode="f" horiz-adv-x="394" 
d="M169 450v-149h143v-66h-143v-235h-79v514h260v-64h-181z" />
    <glyph glyph-name="g" unicode="g" horiz-adv-x="498" 
d="M386 440c0 0 -46 29 -111 29c-36 0 -79 -30 -103 -77c-18 -36 -28 -87 -28 -138c0 -47 6 -96 24 -131c23 -46 57 -76 108 -76c31 0 54 6 67 10v169h74v-218c-13 -5 -64 -23 -142 -23c-157 0 -210 145 -210 272c0 72 19 140 53 188c36 52 91 85 157 85
c60 0 92 -13 143 -38z" />
    <glyph glyph-name="h" unicode="h" horiz-adv-x="514" 
d="M346 0v236h-177v-236h-79v514h79v-213h177v213h79v-514h-79z" />
    <glyph glyph-name="i" unicode="i" horiz-adv-x="261" 
d="M90 0v514h82v-514h-82z" />
    <glyph glyph-name="j" unicode="j" horiz-adv-x="255" 
d="M136 -87c-30 -27 -87 -43 -102 -47l-18 54c13 4 44 16 61 36c7 8 8 17 8 30v528h80v-533c0 -34 -11 -53 -29 -68z" />
    <glyph glyph-name="k" unicode="k" horiz-adv-x="457" 
d="M357 0l-188 201v-201h-79v514h79v-218l173 218h86l-205 -264l209 -219v-31h-75z" />
    <glyph glyph-name="l" unicode="l" horiz-adv-x="367" 
d="M90 0v514h76v-450h181v-64h-257z" />
    <glyph glyph-name="m" unicode="m" horiz-adv-x="673" 
d="M505 0v369l-127 -369h-66l-144 375v-26v-349h-78v514h98l134 -346c1 -3 9 -21 21 -61c12 42 18 60 18 60l124 347h98v-514h-78z" />
    <glyph glyph-name="n" unicode="n" horiz-adv-x="527" 
d="M356 0l-185 384c1 -26 2 -32 2 -37v-347h-79v515h98l164 -357c-1 26 -1 32 -1 36v321h79v-515h-78z" />
    <glyph glyph-name="o" unicode="o" horiz-adv-x="505" 
d="M253 -16c-135 0 -188 153 -188 276c0 122 56 270 188 270c134 0 188 -150 188 -273s-54 -273 -188 -273zM253 466c-88 0 -110 -120 -110 -214c0 -90 22 -204 110 -204c89 0 109 118 109 209c0 92 -23 209 -109 209z" />
    <glyph glyph-name="p" unicode="p" horiz-adv-x="455" 
d="M354 221c-30 -26 -71 -41 -120 -41c-29 0 -61 15 -65 17v-197h-79v514h119c148 0 201 -78 201 -160c0 -53 -19 -101 -56 -133zM209 452h-40v-194s31 -15 55 -15c68 0 107 49 107 112c0 56 -39 97 -122 97z" />
    <glyph glyph-name="q" unicode="q" horiz-adv-x="505" 
d="M427 -118c-12 -2 -18 -2 -25 -2c-74 0 -120 60 -169 105c-120 15 -168 157 -168 274c0 122 56 271 188 271c134 0 188 -150 188 -274c0 -100 -36 -217 -127 -260c31 -26 57 -45 96 -45c9 0 17 1 38 5zM253 466c-88 0 -110 -121 -110 -215c0 -90 22 -203 110 -203
c89 0 109 116 109 208s-23 210 -109 210z" />
    <glyph glyph-name="r" unicode="r" horiz-adv-x="481" 
d="M361 0l-173 184c-5 2 -19 9 -19 9v-193h-79v514h119c147 0 201 -78 201 -160c0 -77 -41 -144 -125 -168l150 -159v-27h-74zM209 452h-40v-194c1 -1 28 -15 55 -15c68 0 107 49 107 112c0 56 -39 97 -122 97z" />
    <glyph glyph-name="s" unicode="s" horiz-adv-x="408" 
d="M196 -16c-60 0 -119 42 -133 52l35 55c7 -5 20 -14 37 -24c19 -10 41 -20 62 -20c47 0 84 31 84 81c0 28 -22 57 -52 76l-95 57c-42 26 -79 70 -79 132c0 88 61 137 152 137c77 0 121 -52 131 -66l-47 -38c-9 10 -40 42 -84 42c-42 0 -75 -23 -75 -66
c0 -38 25 -66 56 -84l86 -53c54 -32 83 -77 83 -138c0 -87 -72 -143 -161 -143z" />
    <glyph glyph-name="t" unicode="t" horiz-adv-x="388" 
d="M232 447v-447h-77v447h-127v67h332v-67h-128z" />
    <glyph glyph-name="u" unicode="u" horiz-adv-x="522" 
d="M261 -16c-125 0 -172 104 -172 214v316h78v-316c0 -77 19 -150 94 -150s94 69 94 150v316h78v-319c0 -112 -47 -211 -172 -211z" />
    <glyph glyph-name="v" unicode="v" horiz-adv-x="466" 
d="M274 0h-82l-173 514h84l132 -412l132 412h81z" />
    <glyph glyph-name="w" unicode="w" horiz-adv-x="627" 
d="M482 0h-77c-27 114 -59 243 -89 383l-6 -28l-83 -355h-80l-125 514h83l82 -369l91 369h76l90 -369l83 369h80z" />
    <glyph glyph-name="x" unicode="x" horiz-adv-x="452" 
d="M341 0l-119 194l-115 -194h-86l158 264l-154 250h86l112 -178l107 178h82l-147 -247l166 -267h-90z" />
    <glyph glyph-name="y" unicode="y" horiz-adv-x="416" 
d="M247 189v-189h-78v189l-155 325h84l112 -242l113 242h80z" />
    <glyph glyph-name="z" unicode="z" horiz-adv-x="429" 
d="M49 0v61c66 126 134 250 211 370l11 17h-204v66h298v-62c-75 -117 -145 -234 -211 -355l-16 -30h249v-67h-338z" />
    <glyph glyph-name="braceleft" unicode="{" horiz-adv-x="333" 
d="M290 -108l-11 -54h-57c-45 0 -100 12 -100 129v176c0 69 -42 121 -82 121v47c40 0 82 51 82 120v176c0 117 53 130 98 130h59l11 -54h-59c-37 0 -48 -16 -48 -90v-176c0 -90 -74 -132 -74 -132s74 -38 74 -128v-176c0 -74 11 -89 54 -89h53z" />
    <glyph glyph-name="bar" unicode="|" horiz-adv-x="222" 
d="M141 756v-774h-60v774h60z" />
    <glyph glyph-name="braceright" unicode="}" horiz-adv-x="333" 
d="M290 264c-40 0 -82 -52 -82 -121v-176c0 -117 -55 -129 -100 -129h-57l-11 54h53c43 0 54 15 54 89v176c0 90 74 128 74 128s-74 42 -74 132v176c0 74 -11 90 -48 90h-59l11 54h59c45 0 98 -13 98 -130v-176c0 -69 42 -120 82 -120v-47z" />
    <glyph glyph-name="asciitilde" unicode="~" horiz-adv-x="666" 
d="M146 308c15 33 49 62 87 62c75 0 134 -68 206 -68c41 0 65 22 81 58l-1 -72c-16 -31 -52 -52 -87 -52c-74 0 -135 68 -206 68c-42 0 -63 -23 -80 -58v62z" />
    <glyph glyph-name="exclamdown" unicode="&#xa1;" horiz-adv-x="264" 
d="M58 442c0 34 31 62 64 62c31 0 58 -24 58 -57s-31 -61 -64 -61c-31 0 -58 24 -58 56zM70 -210c11 63 17 128 17 193v344h60c7 -129 15 -239 15 -368c0 -54 -5 -107 -16 -159z" />
    <glyph glyph-name="cent" unicode="&#xa2;" horiz-adv-x="412" 
d="M219 50v388c-72 -24 -94 -122 -94 -188s23 -173 94 -200zM264 571v-68c37 -4 82 -22 109 -48l-34 -45c-20 16 -50 28 -75 32v-396c31 4 72 26 98 43l25 -47c-31 -29 -82 -50 -123 -56v-60h-45v60c-43 7 -82 31 -110 64c-45 52 -60 123 -60 190c0 62 11 131 49 182
c29 40 72 70 121 80v69h45z" />
    <glyph glyph-name="sterling" unicode="&#xa3;" horiz-adv-x="442" 
d="M398 37c-26 -29 -70 -52 -108 -52c-30 0 -87 15 -87 15h-150c17 76 36 175 36 251v129l-59 6l20 50h39v132c0 90 83 124 161 124c31 0 79 -7 104 -28l-17 -46c-21 12 -57 18 -81 18c-54 0 -91 -25 -91 -83v-117h134v-60h-134v-127c0 -63 -9 -127 -23 -188h71
s58 -19 88 -19c32 0 67 20 86 45z" />
    <glyph glyph-name="fraction" unicode="&#x2044;" horiz-adv-x="339" 
d="M420 745l-430 -876h-63l430 876h63z" />
    <glyph glyph-name="yen" unicode="&#xa5;" horiz-adv-x="476" 
d="M467 317h-148l-41 -89v-5h187v-60h-187v-163h-80v163h-183v60h183v6l-41 88h-140v60h112l-117 253h85l141 -314l141 314h84s-116 -253 -117 -253h121v-60z" />
    <glyph glyph-name="florin" unicode="&#x192;" horiz-adv-x="384" 
d="M369 608c-22 12 -49 22 -74 22c-68 0 -70 -92 -75 -140h112l-10 -58h-110c-22 -157 -60 -409 -161 -532l-41 50c82 108 109 347 128 482l-60 8l11 50h56c4 27 6 54 11 80c14 72 52 121 130 121c29 0 59 -8 83 -24v-59z" />
    <glyph glyph-name="section" unicode="&#xa7;" horiz-adv-x="420" 
d="M301 262c0 45 -43 71 -84 71c-59 0 -101 -29 -101 -91c0 -40 46 -63 80 -63c53 0 105 22 105 83zM211 647c49 0 102 -14 144 -38l-27 -52c-38 18 -76 32 -119 32c-49 0 -89 -27 -89 -79c0 -91 251 -90 251 -243c0 -72 -41 -118 -110 -133c49 -25 106 -59 106 -121
c0 -103 -75 -155 -172 -155c-59 0 -123 19 -174 49l28 55c46 -28 96 -44 150 -44c52 0 96 25 96 82c0 108 -254 104 -254 239c0 84 55 127 134 138c-57 27 -130 56 -130 130c0 95 79 140 166 140z" />
    <glyph glyph-name="currency" unicode="&#xa4;" horiz-adv-x="542" 
d="M550 620l-28 -60c-37 45 -82 67 -147 67c-110 0 -170 -72 -185 -195h274l-30 -63h-252c-1 -13 -2 -23 -2 -33s1 -19 2 -30h223l-30 -63h-185c15 -128 85 -192 175 -192c55 0 115 29 155 79v-80c-35 -35 -90 -62 -160 -62c-125 0 -225 97 -240 255h-110l30 63h71
c-1 13 -1 22 -1 31c0 10 0 19 1 32h-101l30 63h80c15 143 110 258 260 258c75 0 130 -30 170 -70z" />
    <glyph glyph-name="quotesingle" unicode="'" horiz-adv-x="208" 
d="M126 708l14 -63l-22 -157h-33l-21 157l13 63h49z" />
    <glyph glyph-name="quotedblleft" unicode="&#x201c;" horiz-adv-x="446" 
d="M288 431c19 0 47 17 47 17s-2 9 -2 24c0 11 1 25 5 41c8 32 28 71 60 117l-45 31c-88 -97 -129 -184 -129 -184s34 -46 64 -46zM111 431c19 0 47 17 47 17s-2 9 -2 24c0 11 1 25 5 41c8 32 28 71 60 117l-45 31c-88 -97 -129 -184 -129 -184s34 -46 64 -46z" />
    <glyph glyph-name="guillemotleft" unicode="&#xab;" horiz-adv-x="500" 
d="M267 100l-47 -38l-187 188l185 188l47 -38l-149 -150zM445 100l-47 -38l-187 188l185 188l47 -38l-149 -150z" />
    <glyph glyph-name="guilsinglleft" unicode="&#x2039;" horiz-adv-x="300" 
d="M267 100l-47 -38l-187 188l185 188l47 -38l-149 -150z" />
    <glyph glyph-name="guilsinglright" unicode="&#x203a;" horiz-adv-x="300" 
d="M33 100l47 -38l187 188l-185 188l-47 -38l149 -150z" />
    <glyph glyph-name="fi" unicode="&#xfb01;" horiz-adv-x="661" 
d="M490 0v514h76v-514h-76zM173 450v-149h142v-66h-142v-235h-78v514h257v-64h-179z" />
    <glyph glyph-name="fl" unicode="&#xfb02;" horiz-adv-x="762" 
d="M488 0v514h75v-450h179v-64h-254zM173 450v-149h141v-66h-141v-235h-78v514h256v-64h-178z" />
    <glyph glyph-name="endash" unicode="&#x2013;" horiz-adv-x="358" 
d="M358 285v-60h-358v60h358z" />
    <glyph glyph-name="dagger" unicode="&#x2020;" horiz-adv-x="418" 
d="M381 490l-10 -66h-130v-215c0 -62 -6 -169 -37 -224c-31 60 -38 158 -38 224v215h-133v66h133v140h75v-140h140z" />
    <glyph glyph-name="daggerdbl" unicode="&#x2021;" horiz-adv-x="418" 
d="M381 274l-10 -65h-130c0 -62 -6 -169 -37 -224c-31 60 -38 158 -38 224h-133v65h133v150h-133v66h133v139h75v-139h140l-10 -66h-130v-150h140z" />
    <glyph glyph-name="periodcentered" unicode="&#xb7;" horiz-adv-x="258" 
d="M194 246c0 -33 -31 -61 -64 -61c-31 0 -58 24 -58 56c0 34 31 61 64 61c31 0 58 -24 58 -56z" />
    <glyph glyph-name="paragraph" unicode="&#xb6;" horiz-adv-x="543" 
d="M497 639l-3 -51l-52 -12c0 -206 -41 -499 -132 -684l-64 20c98 178 139 462 139 664c-48 5 -95 13 -143 13c-62 0 -77 -68 -77 -117c0 -57 14 -151 89 -151c29 0 58 12 81 30c-31 -61 -71 -99 -143 -99c-114 0 -165 100 -165 201c0 111 74 192 186 192
c59 0 117 -10 175 -15l-1 43h56c0 -14 0 -29 -1 -43z" />
    <glyph glyph-name="bullet" unicode="&#x2022;" horiz-adv-x="424" 
d="M211 487c95 0 173 -77 173 -172s-78 -172 -173 -172s-172 77 -172 172s77 172 172 172z" />
    <glyph glyph-name="quotesinglbase" unicode="&#x201a;" horiz-adv-x="258" 
d="M139 90c30 0 64 -46 64 -46s-41 -87 -129 -184l-45 31c32 46 52 85 60 117c4 16 5 30 5 41c0 15 -2 24 -2 24s28 17 47 17z" />
    <glyph glyph-name="quotedblbase" unicode="&#x201e;" horiz-adv-x="434" 
d="M139 90c-19 0 -47 -17 -47 -17s2 -9 2 -24c0 -11 -1 -25 -5 -41c-8 -32 -28 -71 -60 -117l45 -31c88 97 129 184 129 184s-34 46 -64 46zM316 90c-19 0 -47 -17 -47 -17s2 -9 2 -24c0 -11 -1 -25 -5 -41c-8 -32 -28 -71 -60 -117l45 -31c88 97 129 184 129 184
s-34 46 -64 46z" />
    <glyph glyph-name="quotedblright" unicode="&#x201d;" horiz-adv-x="446" 
d="M157 646c-19 0 -47 -17 -47 -17s2 -9 2 -24c0 -11 -1 -25 -5 -41c-8 -32 -28 -71 -60 -117l45 -31c88 97 129 184 129 184s-34 46 -64 46zM334 646c-19 0 -47 -17 -47 -17s2 -9 2 -24c0 -11 -1 -25 -5 -41c-8 -32 -28 -71 -60 -117l45 -31c88 97 129 184 129 184
s-34 46 -64 46z" />
    <glyph glyph-name="guillemotright" unicode="&#xbb;" horiz-adv-x="500" 
d="M242 100l47 -38l187 188l-185 188l-47 -38l149 -150zM64 100l47 -38l187 188l-185 188l-47 -38l149 -150z" />
    <glyph glyph-name="ellipsis" unicode="&#x2026;" horiz-adv-x="604" 
d="M192 46c0 -33 -31 -61 -64 -61c-31 0 -58 24 -58 56c0 34 31 61 64 61c31 0 58 -24 58 -56zM364 46c0 -33 -31 -61 -64 -61c-31 0 -58 24 -58 56c0 34 31 61 64 61c31 0 58 -24 58 -56zM534 46c0 -33 -31 -61 -64 -61c-31 0 -58 24 -58 56c0 34 31 61 64 61
c31 0 58 -24 58 -56z" />
    <glyph glyph-name="perthousand" unicode="&#x2030;" horiz-adv-x="1005" 
d="M253 512c0 41 -33 74 -74 74s-74 -33 -74 -74s33 -74 74 -74s74 33 74 74zM482 630l-222 -630h-66l211 584c-28 -15 -72 -20 -104 -19c8 -15 11 -36 11 -53c0 -73 -60 -133 -133 -133s-133 60 -133 133s60 133 133 133c20 0 40 -4 58 -13c4 -2 8 -5 13 -7
c14 -6 54 -11 70 -11c36 0 80 11 111 30zM651 118c0 -73 -60 -133 -133 -133s-133 60 -133 133s60 133 133 133s133 -60 133 -133zM592 118c0 41 -33 74 -74 74s-74 -33 -74 -74s33 -74 74 -74s74 33 74 74zM958 118c0 -73 -60 -133 -133 -133s-133 60 -133 133
s60 133 133 133s133 -60 133 -133zM899 118c0 41 -33 74 -74 74s-74 -33 -74 -74s33 -74 74 -74s74 33 74 74z" />
    <glyph glyph-name="questiondown" unicode="&#xbf;" horiz-adv-x="358" 
d="M180 444c0 34 31 61 64 61c31 0 58 -23 58 -56s-31 -61 -64 -61c-31 0 -58 24 -58 56zM210 325h61v-48c0 -63 1 -115 -38 -167l-82 -110c-19 -25 -34 -53 -34 -78c0 -37 19 -63 58 -63c28 0 57 3 84 9v-57c-29 -7 -60 -13 -90 -13c-76 0 -127 40 -127 122
c0 41 23 77 49 112l80 105c30 40 39 72 39 140v48z" />
    <glyph glyph-name="grave" unicode="`" horiz-adv-x="338" 
d="M261 606l-32 -45c-64 34 -132 77 -184 128l62 63c40 -55 99 -106 154 -146z" />
    <glyph glyph-name="acute" unicode="&#xb4;" horiz-adv-x="338" 
d="M213 752l62 -63s-68 -67 -184 -128l-32 45c101 73 154 146 154 146z" />
    <glyph glyph-name="circumflex" unicode="&#x2c6;" horiz-adv-x="402" 
d="M366 606l-32 -46c-47 25 -86 62 -121 100c-35 -38 -75 -76 -121 -100l-32 45c58 40 110 93 153 147c42 -54 98 -106 153 -146z" />
    <glyph glyph-name="tilde" unicode="&#x2dc;" horiz-adv-x="380" 
d="M121 700c56 0 89 -44 137 -44c38 0 51 9 84 32l31 -38c-48 -45 -74 -56 -122 -56c-42 0 -80 44 -133 44c-30 0 -60 -22 -88 -39l-29 43c46 36 83 58 120 58z" />
    <glyph glyph-name="macron" unicode="&#xaf;" horiz-adv-x="335" 
d="M304 632v-59h-274v59h274z" />
    <glyph glyph-name="breve" unicode="&#x2d8;" horiz-adv-x="402" 
d="M310 742l46 -55c-27 -51 -91 -140 -154 -140s-127 90 -154 141l48 53c13 -45 52 -132 107 -132s94 88 107 133z" />
    <glyph glyph-name="dotaccent" unicode="&#x2d9;" horiz-adv-x="186" 
d="M150 630c0 -31 -31 -56 -61 -56c-25 0 -44 19 -44 44c0 32 28 59 59 59c26 0 46 -22 46 -47z" />
    <glyph glyph-name="dieresis" unicode="&#xa8;" horiz-adv-x="384" 
d="M157 642c0 -30 -31 -56 -60 -56c-21 0 -38 15 -38 37c0 29 27 59 57 59c22 0 41 -17 41 -40zM311 642c0 -30 -31 -56 -60 -56c-21 0 -38 15 -38 37c0 29 27 59 57 59c22 0 41 -17 41 -40z" />
    <glyph glyph-name="ring" unicode="&#x2da;" horiz-adv-x="520" 
d="M258 719c-33 0 -62 -27 -62 -60c0 -31 27 -60 59 -60s60 28 60 60c0 31 -25 60 -57 60zM257 765c58 0 104 -49 104 -106c0 -58 -48 -106 -106 -106s-104 49 -104 106s49 106 106 106z" />
    <glyph glyph-name="cedilla" unicode="&#xb8;" horiz-adv-x="402" 
d="M331 -63c0 -48 -63 -94 -103 -111l-38 31c24 13 81 43 81 75c0 18 -14 29 -32 29c-16 0 -33 -5 -49 -9v47h104c18 -13 37 -39 37 -62z" />
    <glyph glyph-name="hungarumlaut" unicode="&#x2dd;" horiz-adv-x="585" 
d="M213 752l62 -63s-68 -67 -184 -128l-32 45c101 73 154 146 154 146zM400 715l62 -63s-30 -30 -146 -91l-32 45c101 73 116 109 116 109z" />
    <glyph glyph-name="ogonek" unicode="&#x2db;" horiz-adv-x="276" 
d="M254 -152l-26 -21c-40 17 -104 63 -104 112c0 6 2 13 4 19c16 44 55 43 96 43v-33h-9c-22 0 -51 -4 -51 -32c0 -36 62 -74 90 -88z" />
    <glyph glyph-name="caron" unicode="&#x2c7;" horiz-adv-x="402" 
d="M92 733c46 -25 86 -62 121 -100c38 36 76 74 123 99l32 -45c-56 -40 -113 -90 -154 -146c-43 56 -96 107 -154 147z" />
    <glyph glyph-name="emdash" unicode="&#x2014;" horiz-adv-x="608" 
d="M608 286v-60h-608v60h608z" />
    <glyph glyph-name="AE" unicode="&#xc6;" horiz-adv-x="726" 
d="M255 547l-74 -278h149zM676 630v-67h-244v-200h187v-69h-187v-225h254v-69h-334v203h-190l-67 -203h-83l199 630h93l48 -211v211h324z" />
    <glyph glyph-name="ordfeminine" unicode="&#xaa;" horiz-adv-x="378" 
d="M276 374l-41 123h-112l-40 -123h-63l128 391h62l129 -391h-63zM179 693l-44 -147h89z" />
    <glyph glyph-name="Oslash" unicode="&#xd8;" horiz-adv-x="548" 
d="M363 531l-135 -471c15 -6 30 -9 46 -9c124 0 139 173 139 264c0 68 -9 158 -50 216zM188 93l136 474c-15 8 -33 12 -50 12c-123 0 -139 -180 -139 -270c0 -68 9 -161 53 -216zM171 -140h-50l46 161c-84 65 -112 197 -112 298c0 133 56 326 219 326c23 0 47 -4 68 -13
l34 117h50l-41 -143c81 -65 108 -192 108 -291c0 -134 -54 -330 -219 -330c-22 0 -43 4 -64 11z" />
    <glyph glyph-name="OE" unicode="&#x152;" horiz-adv-x="638" 
d="M264 566c-117 0 -132 -172 -132 -257s17 -246 132 -246v503zM588 630v-67h-244v-200h187v-69h-187v-225h254v-69h-335c-158 0 -208 192 -208 319c0 125 54 311 208 311h325z" />
    <glyph glyph-name="ordmasculine" unicode="&#xba;" horiz-adv-x="392" 
d="M203 361c-102 0 -143 116 -143 210c0 92 43 205 143 205c102 0 143 -114 143 -208c0 -93 -41 -207 -143 -207zM203 727c-66 0 -83 -91 -83 -162c0 -69 16 -155 83 -155c68 0 83 89 83 158c0 70 -17 159 -83 159z" />
    <glyph glyph-name="ae" unicode="&#xe6;" horiz-adv-x="645" 
d="M302 0v160h-145l-53 -160h-82l167 515h86l27 -151v151h279v-66h-200v-150h153v-67h-153v-164h208v-68h-287zM232 411l-58 -186h108z" />
    <glyph glyph-name="dotlessi" unicode="&#x131;" horiz-adv-x="261" 
d="M90 0v514h82v-514h-82z" />
    <glyph glyph-name="oslash" unicode="&#xf8;" horiz-adv-x="505" 
d="M182 85l108 373c-11 5 -23 8 -37 8c-88 0 -110 -120 -110 -214c0 -58 9 -126 39 -167zM329 419l-106 -366c9 -3 19 -5 30 -5c89 0 109 118 109 209c0 55 -8 119 -33 162zM382 605l-31 -109c63 -51 90 -152 90 -239c0 -123 -54 -273 -188 -273c-17 0 -33 3 -48 7l-29 -102
h-50l36 124c-68 51 -97 157 -97 247c0 122 56 270 188 270c20 0 38 -3 55 -9l24 84h50z" />
    <glyph glyph-name="oe" unicode="&#x153;" horiz-adv-x="583" 
d="M244 0c-129 0 -179 143 -179 260c0 115 53 254 179 254h275v-66h-202v-146h155v-68h-155v-166h210v-68h-283zM238 450c-76 -10 -95 -112 -95 -198c0 -82 19 -179 95 -188v386z" />
    <glyph glyph-name="germandbls" unicode="&#xdf;" horiz-adv-x="572" 
d="M542 124c0 -98 -86 -139 -173 -139c-60 0 -123 19 -174 50l28 55c45 -28 97 -45 150 -45c51 0 96 28 96 83c0 107 -254 103 -254 239c0 93 70 139 157 139c4 15 7 30 7 46c0 63 -48 96 -107 96c-54 0 -107 -37 -107 -95v-553h-76v432l-66 9v49h66v76c0 93 94 141 176 141
c99 0 178 -62 178 -165c0 -35 -11 -68 -20 -102c-15 8 -27 9 -44 9c-49 0 -89 -27 -89 -79c0 -90 252 -89 252 -246z" />
    <glyph glyph-name="Adieresis" unicode="&#xc4;" horiz-adv-x="510" 
d="M255 547l-75 -278h150zM498 0h-82l-67 203h-188l-67 -203h-82l200 630h86zM224 772c0 -30 -31 -56 -60 -56c-21 0 -38 15 -38 37c0 29 27 59 57 59c22 0 41 -17 41 -40zM378 772c0 -30 -31 -56 -60 -56c-21 0 -38 15 -38 37c0 29 27 59 57 59c22 0 41 -17 41 -40z" />
    <glyph glyph-name="Aring" unicode="&#xc5;" horiz-adv-x="510" 
d="M315 784c0 32 -26 60 -57 60c-34 0 -62 -28 -62 -60s28 -60 59 -60c32 0 60 28 60 60zM361 784c0 -58 -48 -106 -106 -106c-57 0 -104 48 -104 106s49 106 106 106s104 -48 104 -106zM255 547l-75 -278h150zM498 0h-82l-67 203h-188l-67 -203h-82l200 630h86z" />
    <glyph glyph-name="Ccedilla" unicode="&#xc7;" horiz-adv-x="497" 
d="M376 -63c0 -48 -63 -94 -103 -111l-38 31c24 13 81 43 81 75c0 18 -14 29 -32 29c-16 0 -33 -5 -49 -9v40c-139 38 -180 196 -180 323c0 147 72 330 245 330c52 0 118 -14 162 -43l-29 -52c-43 23 -84 33 -133 33c-57 0 -107 -53 -130 -101c-25 -51 -35 -114 -35 -171
c0 -105 34 -263 167 -263c44 0 100 16 135 44l35 -51c-32 -26 -82 -45 -122 -52c14 -14 26 -32 26 -52z" />
    <glyph glyph-name="Eacute" unicode="&#xc9;" horiz-adv-x="454" 
d="M404 630v-67h-244v-200h187v-69h-187v-225h254v-69h-334v630h324zM295 882l62 -63s-68 -67 -184 -128l-32 45c101 73 154 146 154 146z" />
    <glyph glyph-name="Ntilde" unicode="&#xd1;" horiz-adv-x="554" 
d="M474 0h-82l-237 514c3 -28 5 -57 5 -86v-428h-80v630h106l213 -482c-3 29 -5 59 -5 88v394h80v-630zM215 830c56 0 89 -44 137 -44c38 0 51 9 84 32l31 -38c-48 -45 -74 -56 -122 -56c-42 0 -80 44 -133 44c-30 0 -60 -22 -88 -39l-29 43c46 36 83 58 120 58z" />
    <glyph glyph-name="Odieresis" unicode="&#xd6;" horiz-adv-x="548" 
d="M274 579c-108 0 -139 -183 -139 -264s31 -264 139 -264s139 183 139 264s-31 264 -139 264zM274 645c164 0 219 -197 219 -330s-55 -330 -219 -330s-219 197 -219 330s55 330 219 330zM244 772c0 -30 -31 -56 -60 -56c-21 0 -38 15 -38 37c0 29 27 59 57 59
c22 0 41 -17 41 -40zM398 772c0 -30 -31 -56 -60 -56c-21 0 -38 15 -38 37c0 29 27 59 57 59c22 0 41 -17 41 -40z" />
    <glyph glyph-name="Udieresis" unicode="&#xdc;" horiz-adv-x="550" 
d="M479 241c0 -131 -50 -256 -200 -256c-149 0 -200 126 -200 260v385h80v-386c0 -81 16 -193 120 -193c106 0 120 112 120 194v385h80v-389zM250 772c0 -30 -31 -56 -60 -56c-21 0 -38 15 -38 37c0 29 27 59 57 59c22 0 41 -17 41 -40zM404 772c0 -30 -31 -56 -60 -56
c-21 0 -38 15 -38 37c0 29 27 59 57 59c22 0 41 -17 41 -40z" />
    <glyph glyph-name="aacute" unicode="&#xe1;" horiz-adv-x="465" 
d="M359 0l-54 162h-147l-53 -162h-83l169 514h81l170 -514h-83zM232 419l-59 -193h117zM272 777l62 -63s-68 -67 -184 -128l-32 45c101 73 154 146 154 146z" />
    <glyph glyph-name="agrave" unicode="&#xe0;" horiz-adv-x="465" 
d="M359 0l-54 162h-147l-53 -162h-83l169 514h81l170 -514h-83zM232 419l-59 -193h117zM335 631l-32 -45c-64 34 -132 77 -184 128l62 63c40 -55 99 -106 154 -146z" />
    <glyph glyph-name="acircumflex" unicode="&#xe2;" horiz-adv-x="465" 
d="M359 0l-54 162h-147l-53 -162h-83l169 514h81l170 -514h-83zM232 419l-59 -193h117zM382 631l-32 -46c-47 25 -86 62 -121 100c-35 -38 -75 -76 -121 -100l-32 45c58 40 110 93 153 147c42 -54 98 -106 153 -146z" />
    <glyph glyph-name="adieresis" unicode="&#xe4;" horiz-adv-x="465" 
d="M359 0l-54 162h-147l-53 -162h-83l169 514h81l170 -514h-83zM232 419l-59 -193h117zM204 667c0 -30 -31 -56 -60 -56c-21 0 -38 15 -38 37c0 29 27 59 57 59c22 0 41 -17 41 -40zM358 667c0 -30 -31 -56 -60 -56c-21 0 -38 15 -38 37c0 29 27 59 57 59
c22 0 41 -17 41 -40z" />
    <glyph glyph-name="atilde" unicode="&#xe3;" horiz-adv-x="465" 
d="M359 0l-54 162h-147l-53 -162h-83l169 514h81l170 -514h-83zM232 419l-59 -193h117zM165 725c56 0 89 -44 137 -44c38 0 51 9 84 32l31 -38c-48 -45 -74 -56 -122 -56c-42 0 -80 44 -133 44c-30 0 -60 -22 -88 -39l-29 43c46 36 83 58 120 58z" />
    <glyph glyph-name="aring" unicode="&#xe5;" horiz-adv-x="465" 
d="M359 0l-54 162h-147l-53 -162h-83l169 514h81l170 -514h-83zM232 419l-59 -193h117zM233 744c-33 0 -62 -27 -62 -60c0 -31 27 -60 59 -60s60 28 60 60c0 31 -25 60 -57 60zM232 790c58 0 104 -49 104 -106c0 -58 -48 -106 -106 -106s-104 49 -104 106s49 106 106 106z
" />
    <glyph glyph-name="ccedilla" unicode="&#xe7;" horiz-adv-x="465" 
d="M337 -43c3 -7 4 -13 4 -20c0 -47 -62 -93 -103 -111l-38 31c39 21 81 47 81 75c0 2 0 5 -1 8c-5 16 -17 21 -31 21c-15 0 -32 -5 -49 -9v45c-99 38 -135 156 -135 260c0 72 19 140 53 188c36 53 91 85 157 85c65 0 115 -21 142 -38l-29 -52c-39 20 -71 29 -113 29
c-36 0 -80 -30 -103 -77c-18 -36 -28 -87 -28 -138c0 -47 6 -96 24 -131c23 -46 57 -76 108 -76c54 0 101 29 114 38l35 -51c-12 -9 -51 -36 -109 -46c9 -9 17 -21 21 -31z" />
    <glyph glyph-name="eacute" unicode="&#xe9;" horiz-adv-x="437" 
d="M90 0v514h282v-64h-203v-149h156v-66h-156v-169h212v-66h-291zM280 777l62 -63s-68 -67 -184 -128l-32 45c101 73 154 146 154 146z" />
    <glyph glyph-name="egrave" unicode="&#xe8;" horiz-adv-x="437" 
d="M90 0v514h282v-64h-203v-149h156v-66h-156v-169h212v-66h-291zM340 631l-32 -45c-64 34 -132 77 -184 128l62 63c40 -55 99 -106 154 -146z" />
    <glyph glyph-name="ecircumflex" unicode="&#xea;" horiz-adv-x="437" 
d="M386 631l-32 -46c-47 25 -86 62 -121 100c-35 -38 -75 -76 -121 -100l-32 45c58 40 110 93 153 147c42 -54 98 -106 153 -146zM102 0v514h282v-64h-203v-149h156v-66h-156v-169h212v-66h-291z" />
    <glyph glyph-name="edieresis" unicode="&#xeb;" horiz-adv-x="437" 
d="M90 0v514h282v-64h-203v-149h156v-66h-156v-169h212v-66h-291zM204 642c0 -30 -31 -56 -60 -56c-21 0 -38 15 -38 37c0 29 27 59 57 59c22 0 41 -17 41 -40zM358 642c0 -30 -31 -56 -60 -56c-21 0 -38 15 -38 37c0 29 27 59 57 59c22 0 41 -17 41 -40z" />
    <glyph glyph-name="iacute" unicode="&#xed;" horiz-adv-x="261" 
d="M90 0v514h82v-514h-82zM244 777l62 -63s-68 -67 -184 -128l-32 45c101 73 154 146 154 146z" />
    <glyph glyph-name="igrave" unicode="&#xec;" horiz-adv-x="261" 
d="M90 0v514h82v-514h-82zM306 631l-32 -45c-64 34 -132 77 -184 128l62 63c40 -55 99 -106 154 -146z" />
    <glyph glyph-name="icircumflex" unicode="&#xee;" horiz-adv-x="261" 
d="M90 0v514h82v-514h-82zM396 631l-32 -46c-47 25 -86 62 -121 100c-35 -38 -75 -76 -121 -100l-32 45c58 40 110 93 153 147c42 -54 98 -106 153 -146z" />
    <glyph glyph-name="idieresis" unicode="&#xef;" horiz-adv-x="261" 
d="M90 0v514h82v-514h-82zM188 667c0 -30 -31 -56 -60 -56c-21 0 -38 15 -38 37c0 29 27 59 57 59c22 0 41 -17 41 -40zM342 667c0 -30 -31 -56 -60 -56c-21 0 -38 15 -38 37c0 29 27 59 57 59c22 0 41 -17 41 -40z" />
    <glyph glyph-name="ntilde" unicode="&#xf1;" horiz-adv-x="539" 
d="M366 0l-185 384c1 -26 2 -32 2 -37v-347h-79v515h98l164 -357c-1 26 -1 32 -1 36v321h79v-515h-78zM201 725c56 0 89 -44 137 -44c38 0 51 9 84 32l31 -38c-48 -45 -74 -56 -122 -56c-42 0 -80 44 -133 44c-30 0 -60 -22 -88 -39l-29 43c46 36 83 58 120 58z" />
    <glyph glyph-name="oacute" unicode="&#xf3;" horiz-adv-x="505" 
d="M263 -16c-135 0 -188 153 -188 276c0 122 56 270 188 270c134 0 188 -150 188 -273s-54 -273 -188 -273zM263 466c-88 0 -110 -120 -110 -214c0 -90 22 -204 110 -204c89 0 109 118 109 209c0 92 -23 209 -109 209zM310 777l62 -63s-68 -67 -184 -128l-32 45
c101 73 154 146 154 146z" />
    <glyph glyph-name="ograve" unicode="&#xf2;" horiz-adv-x="505" 
d="M263 -16c-135 0 -188 153 -188 276c0 122 56 270 188 270c134 0 188 -150 188 -273s-54 -273 -188 -273zM263 466c-88 0 -110 -120 -110 -214c0 -90 22 -204 110 -204c89 0 109 118 109 209c0 92 -23 209 -109 209zM363 631l-32 -45c-64 34 -132 77 -184 128l62 63
c40 -55 99 -106 154 -146z" />
    <glyph glyph-name="ocircumflex" unicode="&#xf4;" horiz-adv-x="505" 
d="M263 -16c-135 0 -188 153 -188 276c0 122 56 270 188 270c134 0 188 -150 188 -273s-54 -273 -188 -273zM263 466c-88 0 -110 -120 -110 -214c0 -90 22 -204 110 -204c89 0 109 118 109 209c0 92 -23 209 -109 209zM406 631l-32 -46c-47 25 -86 62 -121 100
c-35 -38 -75 -76 -121 -100l-32 45c58 40 110 93 153 147c42 -54 98 -106 153 -146z" />
    <glyph glyph-name="odieresis" unicode="&#xf6;" horiz-adv-x="505" 
d="M263 -16c-135 0 -188 153 -188 276c0 122 56 270 188 270c134 0 188 -150 188 -273s-54 -273 -188 -273zM263 466c-88 0 -110 -120 -110 -214c0 -90 22 -204 110 -204c89 0 109 118 109 209c0 92 -23 209 -109 209zM228 667c0 -30 -31 -56 -60 -56c-21 0 -38 15 -38 37
c0 29 27 59 57 59c22 0 41 -17 41 -40zM382 667c0 -30 -31 -56 -60 -56c-21 0 -38 15 -38 37c0 29 27 59 57 59c22 0 41 -17 41 -40z" />
    <glyph glyph-name="otilde" unicode="&#xf5;" horiz-adv-x="505" 
d="M263 -16c-135 0 -188 153 -188 276c0 122 56 270 188 270c134 0 188 -150 188 -273s-54 -273 -188 -273zM263 466c-88 0 -110 -120 -110 -214c0 -90 22 -204 110 -204c89 0 109 118 109 209c0 92 -23 209 -109 209zM188 725c56 0 89 -44 137 -44c38 0 51 9 84 32l31 -38
c-48 -45 -74 -56 -122 -56c-42 0 -80 44 -133 44c-30 0 -60 -22 -88 -39l-29 43c46 36 83 58 120 58z" />
    <glyph glyph-name="uacute" unicode="&#xfa;" horiz-adv-x="522" 
d="M271 -16c-125 0 -172 104 -172 214v316h78v-316c0 -77 19 -150 94 -150s94 69 94 150v316h78v-319c0 -112 -47 -211 -172 -211zM312 777l62 -63s-68 -67 -184 -128l-32 45c101 73 154 146 154 146z" />
    <glyph glyph-name="ugrave" unicode="&#xf9;" horiz-adv-x="522" 
d="M271 -16c-125 0 -172 104 -172 214v316h78v-316c0 -77 19 -150 94 -150s94 69 94 150v316h78v-319c0 -112 -47 -211 -172 -211zM373 631l-32 -45c-64 34 -132 77 -184 128l62 63c40 -55 99 -106 154 -146z" />
    <glyph glyph-name="ucircumflex" unicode="&#xfb;" horiz-adv-x="522" 
d="M413 631l-32 -46c-47 25 -86 62 -121 100c-35 -38 -75 -76 -121 -100l-32 45c58 40 110 93 153 147c42 -54 98 -106 153 -146zM271 -16c-125 0 -172 104 -172 214v316h78v-316c0 -77 19 -150 94 -150s94 69 94 150v316h78v-319c0 -112 -47 -211 -172 -211z" />
    <glyph glyph-name="udieresis" unicode="&#xfc;" horiz-adv-x="522" 
d="M271 -16c-125 0 -172 104 -172 214v316h78v-316c0 -77 19 -150 94 -150s94 69 94 150v316h78v-319c0 -112 -47 -211 -172 -211zM233 667c0 -30 -31 -56 -60 -56c-21 0 -38 15 -38 37c0 29 27 59 57 59c22 0 41 -17 41 -40zM387 667c0 -30 -31 -56 -60 -56
c-21 0 -38 15 -38 37c0 29 27 59 57 59c22 0 41 -17 41 -40z" />
    <glyph glyph-name="degree" unicode="&#xb0;" horiz-adv-x="352" 
d="M172 601c-52 0 -94 -42 -94 -94s42 -94 94 -94s94 42 94 94s-42 94 -94 94zM172 646c76 0 139 -63 139 -139s-63 -139 -139 -139s-139 63 -139 139s63 139 139 139z" />
    <glyph glyph-name="registered" unicode="&#xae;" horiz-adv-x="879" 
d="M760 244c0 -178 -143 -322 -321 -322c-177 0 -321 145 -321 322c0 178 142 321 321 321s321 -143 321 -321zM711 244c0 150 -122 273 -272 273c-151 0 -272 -123 -272 -273c0 -156 121 -273 275 -273c151 0 269 123 269 273zM582 71h-53l-120 121c-8 2 -15 5 -22 9v-130
h-51v355h86c73 0 146 -34 146 -116c0 -53 -41 -113 -96 -118l110 -106v-15zM515 312c0 54 -45 73 -93 73h-35v-142c15 -7 30 -13 46 -13c50 0 82 32 82 82z" />
    <glyph glyph-name="copyright" unicode="&#xa9;" horiz-adv-x="879" 
d="M763 245c0 -178 -145 -322 -322 -322s-321 145 -321 322s143 321 321 321s322 -143 322 -321zM714 245c0 150 -123 273 -273 273c-151 0 -272 -123 -272 -273c0 -154 122 -273 275 -273c150 0 270 123 270 273zM555 114c-25 -23 -72 -48 -107 -48
c-103 0 -158 82 -158 178c0 93 51 181 153 181c34 0 76 -15 102 -39l-27 -34c-19 16 -51 25 -75 25c-74 0 -96 -67 -96 -130c0 -67 26 -134 103 -134c27 0 62 18 84 34z" />
    <glyph glyph-name="trademark" unicode="&#x2122;" horiz-adv-x="802" 
d="M310 650h-97v-353h-49v353h-97v44h243v-44zM724 694v-397h-50v270c0 21 3 54 3 54l-114 -324h-44l-114 325s3 -33 3 -54v-271h-51v397h67l117 -335l116 335h67z" />
    <glyph glyph-name="notequal" unicode="&#x2260;" horiz-adv-x="480" 
d="M332 438l37 -21l-42 -65h99v-59h-135l-57 -90h192v-59h-229l-60 -95l-31 24l44 71h-106v59h142l56 90h-198v59h234z" />
    <glyph glyph-name="infinity" unicode="&#x221e;" horiz-adv-x="619" 
d="M540 733l-466 -789h-63l466 789h63zM459 323c59 0 101 -29 101 -92c0 -68 -60 -133 -108 -175h119v-56h-210l-11 51c53 27 148 116 148 179c0 28 -24 38 -48 38c-33 0 -64 -17 -89 -37l-11 49c37 29 60 43 109 43zM176 694v-313h-61v254h-77v45c20 0 39 3 58 7
c8 2 22 7 29 7h51z" />
    <glyph glyph-name="plusminus" unicode="&#xb1;" horiz-adv-x="447" 
d="M416 59v-60h-361v60h361zM426 220h-162v-125h-58v125h-161v60h161v173h58v-173h162v-60z" />
    <glyph glyph-name="lessequal" unicode="&#x2264;" horiz-adv-x="225" 
d="M121 87c30 0 64 -46 64 -46s-41 -87 -129 -184l-45 31c32 46 52 85 60 117c4 16 5 30 5 41c0 15 -2 24 -2 24s28 17 47 17z" />
    <glyph glyph-name="greaterequal" unicode="&#x2265;" horiz-adv-x="225" 
d="M173 46c0 -33 -30 -61 -63 -61c-32 0 -58 24 -58 56c0 34 30 61 63 61c32 0 58 -24 58 -56z" />
    <glyph glyph-name="mu" unicode="&#xb5;" horiz-adv-x="519" 
d="M181 -88c0 -24 -7 -49 -19 -70l-100 -18c13 30 29 80 29 112c0 61 -11 121 -11 182v372h76v-372c0 -43 6 -71 56 -71c45 0 116 27 149 57v386h76v-415c0 -16 0 -39 21 -40l-25 -50c-35 0 -65 21 -70 57c-41 -34 -105 -57 -158 -57c-12 0 -32 9 -43 15
c8 -24 19 -63 19 -88z" />
    <glyph glyph-name="partialdiff" unicode="&#x2202;" horiz-adv-x="12" 
d="M12 694v-694h-12v694h12z" />
    <glyph glyph-name="summation" unicode="&#x2211;" horiz-adv-x="474" 
d="M236 511l36 -60l61 39v-76h75l-38 -61l64 -37l-63 -37l38 -61h-76v-72l-60 36l-38 -65l-37 64l-60 -38v75h-74l38 63l-62 37l61 36l-35 60h73v71l61 -35z" />
    <glyph glyph-name="product" unicode="&#x220f;" horiz-adv-x="424" 
d="M367 473v-312h-310v312h310z" />
    <glyph glyph-name="pi" unicode="&#x3c0;" horiz-adv-x="424" 
d="M60 490l324 -174l-324 -172v346z" />
    <glyph glyph-name="integral" unicode="&#x222b;" 
d="M224 0v553h-145v54c56 0 152 23 152 23h70v-630h-77z" />
    <glyph glyph-name="Omega" unicode="&#x3a9;" horiz-adv-x="368" 
d="M67 374v391h215v-49h-155v-113h119v-51h-119v-128h161v-50h-221z" />
    <glyph glyph-name="logicalnot" unicode="&#xac;" horiz-adv-x="535" 
d="M449 176l-59 -11v206h-344v60h403v-255z" />
    <glyph glyph-name="radical" unicode="&#x221a;" horiz-adv-x="539" 
d="M463 -7c-14 -5 -30 -8 -50 -8c-42 0 -77 26 -77 96v251l-18 1c-44 0 -86 0 -101 -4c-64 -17 -80 -85 -80 -139c0 -41 14 -139 45 -139c8 0 24 20 30 25c17 17 34 27 59 27c21 0 42 -11 42 -11l-16 -57s-15 4 -24 4c-12 0 -21 -8 -29 -17l-10 -10c-12 -13 -27 -27 -53 -27
c-63 0 -99 62 -114 112c-9 28 -13 60 -13 90c0 27 3 53 10 73c30 95 91 114 116 118c-30 7 -51 33 -51 62c0 76 69 113 138 113c89 0 144 -56 144 -119v-39h76v-63h-75v-248c0 -21 2 -35 24 -34c16 0 32 7 47 14l19 -53c-16 -8 -26 -13 -39 -18zM339 422c0 24 -6 43 -17 56
c-12 13 -32 18 -52 18c-34 0 -64 -11 -64 -51c0 -23 17 -50 81 -50h52v27z" />
    <glyph glyph-name="approxequal" unicode="&#x2248;" horiz-adv-x="1041" 
d="M992 458c-21 0 -41 5 -61 5c-7 0 -14 -1 -21 -1c-10 0 -20 1 -30 1c-6 0 -13 -1 -19 -1c-7 0 -14 2 -21 2c-28 1 -45 -1 -73 8c0 1 -1 1 -2 1c-2 0 -5 -3 -11 -3c-8 0 -13 4 -20 4c-12 0 -24 -2 -36 -2c-17 0 -34 1 -52 1c-20 0 -39 3 -59 6c-19 2 -38 4 -56 6
c-18 1 -35 8 -52 8c-6 0 -11 -1 -17 -4c-84 -38 -167 -77 -250 -117c-2 -1 -4 -2 -7 -2c-15 0 -8 27 -37 27c-13 0 -26 -2 -39 -2c-32 0 -9 26 -42 25h-2c-6 -1 -20 -24 -22 -30c-15 -44 -17 -162 -17 -211c0 -35 -1 -204 33 -204c9 0 18 11 26 11s17 -2 26 -2
c51 0 60 33 65 79c1 4 2 12 8 12h4c25 -10 49 -15 75 -15c29 0 58 6 86 14c8 2 37 13 44 13c1 0 2 0 2 -2c10 -23 27 -41 54 -41c6 0 18 1 21 8c-1 -18 23 -37 39 -37c2 0 4 0 5 1c27 13 42 34 66 44c11 5 21 10 30 18c22 18 23 27 55 29c16 1 41 2 53 14c11 10 17 22 17 37
c0 22 -16 47 -33 60c0 2 1 5 1 7c0 36 -44 70 -57 103c26 0 52 8 78 16c4 2 7 3 12 3c8 0 15 -3 24 -3c27 0 66 6 92 16c7 3 32 4 40 5c13 1 24 4 37 6c8 2 15 3 22 6c27 11 40 34 40 62c0 21 0 19 -19 19zM113 9c-9 0 -29 0 -34 8c-2 3 -2 7 -3 10c-8 58 -9 118 -9 177
c0 38 0 106 8 142c5 25 12 34 39 34c11 0 23 0 34 -2c5 0 9 -1 9 -7s-3 -12 -4 -19c-4 -37 -5 -76 -5 -114v-39c1 -31 3 -63 5 -94c2 -21 5 -42 5 -64c0 -33 -17 -32 -45 -32zM683 136c-8 0 -23 1 -23 11c0 1 0 3 1 4c6 15 13 24 31 24c13 0 47 -9 47 -25c0 -1 0 -2 -1 -3
c-2 -6 -47 -11 -55 -11zM908 391c-12 0 -24 3 -35 3c-8 0 -13 -4 -21 -6s-17 -2 -26 -2c-15 0 -31 0 -46 3c-15 -6 -37 -8 -53 -8c-8 0 -16 0 -23 2c-8 2 -16 6 -25 6c-5 0 -9 -2 -14 -4c-21 -11 -45 -15 -69 -15c-9 0 -17 0 -26 1c-13 2 -26 4 -38 7c-3 1 -17 7 -18 7
c-4 0 -7 -5 -7 -8c0 -7 3 -13 3 -19c0 -9 -8 -25 -17 -25c-13 0 -26 34 -39 34c-5 0 -8 -5 -8 -9c0 -11 12 -22 12 -37c0 -9 -7 -15 -16 -15c-20 0 -44 22 -67 22c-5 0 -20 -3 -20 -10c0 -8 9 -8 15 -8c15 0 37 -13 49 -22c15 -13 49 -31 68 -38c11 -5 22 -8 34 -11
c14 -2 36 1 45 -8c2 -3 4 -4 7 -4c12 0 26 13 46 13c11 0 21 -2 32 -4c12 -3 66 -19 66 -35c0 -5 -5 -8 -9 -8c-6 0 -11 2 -16 2c-23 0 -34 -12 -42 -12h-2c-6 1 -10 4 -15 5c-10 2 -21 2 -30 2c-15 0 -35 2 -48 -6c-4 4 -10 7 -16 7c-4 0 -8 -2 -10 -4c-6 1 -13 4 -19 4
c-18 0 -34 -9 -52 -9c-33 0 -44 26 -65 26c-3 0 -5 -1 -7 -1c-25 -3 -49 -8 -74 -8c-18 0 -37 2 -55 3c-12 1 -24 1 -36 2c-42 5 -54 36 -54 75v9c1 22 1 48 24 58c8 4 18 7 27 10c32 15 65 30 97 45c34 16 134 67 170 67c39 0 75 -8 113 -13c23 -3 45 -4 67 -4
c17 0 34 2 50 2c27 0 32 -15 43 -15c9 0 5 10 26 10c23 0 46 -3 69 -3c15 0 30 2 45 2c27 0 5 -32 57 -32c11 0 22 3 32 3c2 0 3 -1 3 -2c0 -3 -3 -5 -5 -6c-14 -12 -59 -19 -77 -19zM929 443c0 3 2 5 4 6l58 -5l2 -2l1 -2c0 -13 -17 -14 -27 -14c-11 0 -38 0 -38 17z" />
    <glyph glyph-name="Delta" unicode="&#x394;" horiz-adv-x="1041" 
d="M49 458c21 0 41 5 61 5c7 0 14 -1 21 -1c10 0 20 1 30 1c6 0 13 -1 19 -1c7 0 14 2 21 2c28 1 45 -1 73 8c0 1 1 1 2 1c2 0 5 -3 11 -3c8 0 13 4 20 4c12 0 24 -2 36 -2c17 0 34 1 52 1c20 0 39 3 59 6c19 2 38 4 56 6c18 1 35 8 52 8c6 0 11 -1 17 -4
c84 -38 167 -77 250 -117c2 -1 4 -2 7 -2c15 0 8 27 37 27c13 0 26 -2 39 -2c32 0 9 26 42 25h2c6 -1 20 -24 22 -30c15 -44 17 -162 17 -211c0 -35 1 -204 -33 -204c-9 0 -18 11 -26 11s-17 -2 -26 -2c-51 0 -60 33 -65 79c-1 4 -2 12 -8 12h-4c-25 -10 -49 -15 -75 -15
c-29 0 -58 6 -86 14c-8 2 -37 13 -44 13c-1 0 -2 0 -2 -2c-10 -23 -27 -41 -54 -41c-6 0 -18 1 -21 8c1 -18 -23 -37 -39 -37c-2 0 -4 0 -5 1c-27 13 -42 34 -66 44c-11 5 -21 10 -30 18c-22 18 -23 27 -55 29c-16 1 -41 2 -53 14c-11 10 -17 22 -17 37c0 22 16 47 33 60
c0 2 -1 5 -1 7c0 36 44 70 57 103c-26 0 -52 8 -78 16c-4 2 -7 3 -12 3c-8 0 -15 -3 -24 -3c-27 0 -66 6 -92 16c-7 3 -32 4 -40 5c-13 1 -24 4 -37 6c-8 2 -15 3 -22 6c-27 11 -40 34 -40 62c0 21 0 19 19 19zM928 9c9 0 29 0 34 8c2 3 2 7 3 10c8 58 9 118 9 177
c0 38 0 106 -8 142c-5 25 -12 34 -39 34c-11 0 -23 0 -34 -2c-5 0 -9 -1 -9 -7s3 -12 4 -19c4 -37 5 -76 5 -114v-39c-1 -31 -3 -63 -5 -94c-2 -21 -5 -42 -5 -64c0 -33 17 -32 45 -32zM358 136c8 0 23 1 23 11c0 1 0 3 -1 4c-6 15 -13 24 -31 24c-13 0 -47 -9 -47 -25
c0 -1 0 -2 1 -3c2 -6 47 -11 55 -11zM133 391c12 0 24 3 35 3c8 0 13 -4 21 -6s17 -2 26 -2c15 0 31 0 46 3c15 -6 37 -8 53 -8c8 0 16 0 23 2c8 2 16 6 25 6c5 0 9 -2 14 -4c21 -11 45 -15 69 -15c9 0 17 0 26 1c13 2 26 4 38 7c3 1 17 7 18 7c4 0 7 -5 7 -8
c0 -7 -3 -13 -3 -19c0 -9 8 -25 17 -25c13 0 26 34 39 34c5 0 8 -5 8 -9c0 -11 -12 -22 -12 -37c0 -9 7 -15 16 -15c20 0 44 22 67 22c5 0 20 -3 20 -10c0 -8 -9 -8 -15 -8c-15 0 -37 -13 -49 -22c-15 -13 -49 -31 -68 -38c-11 -5 -22 -8 -34 -11c-14 -2 -36 1 -45 -8
c-2 -3 -4 -4 -7 -4c-12 0 -26 13 -46 13c-11 0 -21 -2 -32 -4c-12 -3 -66 -19 -66 -35c0 -5 5 -8 9 -8c6 0 11 2 16 2c23 0 34 -12 42 -12h2c6 1 10 4 15 5c10 2 21 2 30 2c15 0 35 2 48 -6c4 4 10 7 16 7c4 0 8 -2 10 -4c6 1 13 4 19 4c18 0 34 -9 52 -9c33 0 44 26 65 26
c3 0 5 -1 7 -1c25 -3 49 -8 74 -8c18 0 37 2 55 3c12 1 24 1 36 2c42 5 54 36 54 75v9c-1 22 -1 48 -24 58c-8 4 -18 7 -27 10c-32 15 -65 30 -97 45c-34 16 -134 67 -170 67c-39 0 -75 -8 -113 -13c-23 -3 -45 -4 -67 -4c-17 0 -34 2 -50 2c-27 0 -32 -15 -43 -15
c-9 0 -5 10 -26 10c-23 0 -46 -3 -69 -3c-15 0 -30 2 -45 2c-27 0 -5 -32 -57 -32c-11 0 -22 3 -32 3c-2 0 -3 -1 -3 -2c0 -3 3 -5 5 -6c14 -12 59 -19 77 -19zM112 443c0 3 -2 5 -4 6l-58 -5l-2 -2l-1 -2c0 -13 17 -14 27 -14c11 0 38 0 38 17z" />
    <glyph glyph-name="nbspace" unicode="&#xa0;" horiz-adv-x="225" 
 />
    <glyph glyph-name="Agrave" unicode="&#xc0;" horiz-adv-x="510" 
d="M255 547l-75 -278h150zM498 0h-82l-67 203h-188l-67 -203h-82l200 630h86zM366 736l-32 -45c-64 34 -132 77 -184 128l62 63c40 -55 99 -106 154 -146z" />
    <glyph glyph-name="Atilde" unicode="&#xc3;" horiz-adv-x="510" 
d="M255 547l-75 -278h150zM498 0h-82l-67 203h-188l-67 -203h-82l200 630h86zM188 830c56 0 89 -44 137 -44c38 0 51 9 84 32l31 -38c-48 -45 -74 -56 -122 -56c-42 0 -80 44 -133 44c-30 0 -60 -22 -88 -39l-29 43c46 36 83 58 120 58z" />
    <glyph glyph-name="Otilde" unicode="&#xd5;" horiz-adv-x="548" 
d="M274 579c-108 0 -139 -183 -139 -264s31 -264 139 -264s139 183 139 264s-31 264 -139 264zM274 645c164 0 219 -197 219 -330s-55 -330 -219 -330s-219 197 -219 330s55 330 219 330zM206 830c56 0 89 -44 137 -44c38 0 51 9 84 32l31 -38c-48 -45 -74 -56 -122 -56
c-42 0 -80 44 -133 44c-30 0 -60 -22 -88 -39l-29 43c46 36 83 58 120 58z" />
    <glyph glyph-name="divide" unicode="&#xf7;" horiz-adv-x="489" 
d="M308 404c0 -33 -31 -61 -64 -61c-31 0 -58 24 -58 56c0 34 31 61 64 61c31 0 58 -24 58 -56zM308 107c0 -33 -31 -61 -64 -61c-31 0 -58 24 -58 56c0 34 31 61 64 61c31 0 58 -24 58 -56zM434 280v-60h-380v60h380z" />
    <glyph glyph-name="lozenge" unicode="&#x25ca;" horiz-adv-x="476" 
d="M435 317l-203 -203l-203 203l203 203z" />
    <glyph glyph-name="ydieresis" unicode="&#xff;" horiz-adv-x="416" 
d="M187 642c0 -30 -31 -56 -60 -56c-21 0 -38 15 -38 37c0 29 27 59 57 59c22 0 41 -17 41 -40zM341 642c0 -30 -31 -56 -60 -56c-21 0 -38 15 -38 37c0 29 27 59 57 59c22 0 41 -17 41 -40zM257 189v-189h-78v189l-155 325h84l112 -242l113 242h80z" />
    <glyph glyph-name="Ydieresis" unicode="&#x178;" horiz-adv-x="471" 
d="M459 630l-184 -399v-231h-79v231l-183 399h85l140 -314l141 314h80zM217 772c0 -30 -31 -56 -60 -56c-21 0 -38 15 -38 37c0 29 27 59 57 59c22 0 41 -17 41 -40zM371 772c0 -30 -31 -56 -60 -56c-21 0 -38 15 -38 37c0 29 27 59 57 59c22 0 41 -17 41 -40z" />
    <glyph glyph-name="Acircumflex" unicode="&#xc2;" horiz-adv-x="510" 
d="M255 547l-75 -278h150zM498 0h-82l-67 203h-188l-67 -203h-82l200 630h86zM405 736l-32 -46c-47 25 -86 62 -121 100c-35 -38 -75 -76 -121 -100l-32 45c58 40 110 93 153 147c42 -54 98 -106 153 -146z" />
    <glyph glyph-name="Ecircumflex" unicode="&#xca;" horiz-adv-x="454" 
d="M404 630v-67h-244v-200h187v-69h-187v-225h254v-69h-334v630h324zM396 736l-32 -46c-47 25 -86 62 -121 100c-35 -38 -75 -76 -121 -100l-32 45c58 40 110 93 153 147c42 -54 98 -106 153 -146z" />
    <glyph glyph-name="Aacute" unicode="&#xc1;" horiz-adv-x="510" 
d="M255 547l-75 -278h150zM498 0h-82l-67 203h-188l-67 -203h-82l200 630h86zM304 882l62 -63s-68 -67 -184 -128l-32 45c101 73 154 146 154 146z" />
    <glyph glyph-name="Edieresis" unicode="&#xcb;" horiz-adv-x="454" 
d="M404 630v-67h-244v-200h187v-69h-187v-225h254v-69h-334v630h324zM215 772c0 -30 -31 -56 -60 -56c-21 0 -38 15 -38 37c0 29 27 59 57 59c22 0 41 -17 41 -40zM369 772c0 -30 -31 -56 -60 -56c-21 0 -38 15 -38 37c0 29 27 59 57 59c22 0 41 -17 41 -40z" />
    <glyph glyph-name="Egrave" unicode="&#xc8;" horiz-adv-x="454" 
d="M404 630v-67h-244v-200h187v-69h-187v-225h254v-69h-334v630h324zM355 736l-32 -45c-64 34 -132 77 -184 128l62 63c40 -55 99 -106 154 -146z" />
    <glyph glyph-name="Iacute" unicode="&#xcd;" horiz-adv-x="238" 
d="M158 630v-630h-78v630h78zM234 882l62 -63s-68 -67 -184 -128l-32 45c101 73 154 146 154 146z" />
    <glyph glyph-name="Icircumflex" unicode="&#xce;" horiz-adv-x="238" 
d="M158 630v-630h-78v630h78zM386 736l-32 -46c-47 25 -86 62 -121 100c-35 -38 -75 -76 -121 -100l-32 45c58 40 110 93 153 147c42 -54 98 -106 153 -146z" />
    <glyph glyph-name="Idieresis" unicode="&#xcf;" horiz-adv-x="238" 
d="M158 630v-630h-78v630h78zM178 772c0 -30 -31 -56 -60 -56c-21 0 -38 15 -38 37c0 29 27 59 57 59c22 0 41 -17 41 -40zM332 772c0 -30 -31 -56 -60 -56c-21 0 -38 15 -38 37c0 29 27 59 57 59c22 0 41 -17 41 -40z" />
    <glyph glyph-name="Igrave" unicode="&#xcc;" horiz-adv-x="238" 
d="M158 630v-630h-78v630h78zM296 736l-32 -45c-64 34 -132 77 -184 128l62 63c40 -55 99 -106 154 -146z" />
    <glyph glyph-name="Oacute" unicode="&#xd3;" horiz-adv-x="548" 
d="M274 579c-108 0 -139 -183 -139 -264s31 -264 139 -264s139 183 139 264s-31 264 -139 264zM274 645c164 0 219 -197 219 -330s-55 -330 -219 -330s-219 197 -219 330s55 330 219 330zM321 882l62 -63s-68 -67 -184 -128l-32 45c101 73 154 146 154 146z" />
    <glyph glyph-name="Ocircumflex" unicode="&#xd4;" horiz-adv-x="548" 
d="M274 579c-108 0 -139 -183 -139 -264s31 -264 139 -264s139 183 139 264s-31 264 -139 264zM274 645c164 0 219 -197 219 -330s-55 -330 -219 -330s-219 197 -219 330s55 330 219 330zM426 739l-32 -46c-47 25 -86 62 -121 100c-35 -38 -75 -76 -121 -100l-32 45
c58 40 110 93 153 147c42 -54 98 -106 153 -146z" />
    <glyph glyph-name="Ograve" unicode="&#xd2;" horiz-adv-x="548" 
d="M274 579c-108 0 -139 -183 -139 -264s31 -264 139 -264s139 183 139 264s-31 264 -139 264zM274 645c164 0 219 -197 219 -330s-55 -330 -219 -330s-219 197 -219 330s55 330 219 330zM380 736l-32 -45c-64 34 -132 77 -184 128l62 63c40 -55 99 -106 154 -146z" />
    <glyph glyph-name="Uacute" unicode="&#xda;" horiz-adv-x="558" 
d="M479 241c0 -131 -50 -256 -200 -256c-149 0 -200 126 -200 260v385h80v-386c0 -81 16 -193 120 -193c106 0 120 112 120 194v385h80v-389zM329 882l62 -63s-68 -67 -184 -128l-32 45c101 73 154 146 154 146z" />
    <glyph glyph-name="Ucircumflex" unicode="&#xdb;" horiz-adv-x="558" 
d="M479 241c0 -131 -50 -256 -200 -256c-149 0 -200 126 -200 260v385h80v-386c0 -81 16 -193 120 -193c106 0 120 112 120 194v385h80v-389zM430 736l-32 -46c-47 25 -86 62 -121 100c-35 -38 -75 -76 -121 -100l-32 45c58 40 110 93 153 147c42 -54 98 -106 153 -146z" />
    <glyph glyph-name="Ugrave" unicode="&#xd9;" horiz-adv-x="558" 
d="M479 241c0 -131 -50 -256 -200 -256c-149 0 -200 126 -200 260v385h80v-386c0 -81 16 -193 120 -193c106 0 120 112 120 194v385h80v-389zM389 736l-32 -45c-64 34 -132 77 -184 128l62 63c40 -55 99 -106 154 -146z" />
    </font>
</defs>
</svg>
